# Blender 3.6.2
# www.blender.org
mtllib back_rotor.mtl
o tail_rotor
v 0.502851 4.230018 -9.143207
v 0.502851 4.332256 -9.185543
v 0.502851 4.262674 -8.894579
v 0.502851 4.190650 -8.978591
v 0.502851 4.088181 -8.936309
v 0.502851 4.157763 -9.227273
v 0.580829 4.230018 -9.143207
v 0.580829 4.332256 -9.185543
v 0.580829 4.262674 -8.894579
v 0.580829 4.190650 -8.978591
v 0.580829 4.088181 -8.936309
v 0.580829 4.157763 -9.227273
v 0.859699 4.394591 -8.963487
v 0.836888 4.421495 -9.028332
v 0.763073 4.421495 -9.028332
v 0.740262 4.394591 -8.963487
v 0.799981 4.377964 -8.923412
v 0.859699 4.513809 -8.914024
v 0.836888 4.540713 -8.978869
v 0.763073 4.540713 -8.978869
v 0.740262 4.513809 -8.914024
v 0.799981 4.497182 -8.873948
v 0.820390 4.624147 -8.775528
v 0.812594 4.683869 -8.919475
v 0.787367 4.683869 -8.919475
v 0.779571 4.624147 -8.775528
v 0.799981 4.587237 -8.686566
v 0.820390 5.459871 -8.428793
v 0.812594 5.519593 -8.572740
v 0.787367 5.519593 -8.572740
v 0.779571 5.459871 -8.428793
v 0.799981 5.422961 -8.339831
v 0.838934 3.985010 -9.140722
v 0.824055 4.002558 -9.183019
v 0.775906 4.002558 -9.183019
v 0.761028 3.985010 -9.140722
v 0.799981 3.974164 -9.114582
v 0.838934 4.426013 -8.957754
v 0.824055 4.443562 -9.000051
v 0.775906 4.443562 -9.000051
v 0.761028 4.426013 -8.957754
v 0.799981 4.415168 -8.931614
v 0.859699 4.026132 -9.158370
v 0.836888 3.999228 -9.093525
v 0.763073 3.999228 -9.093525
v 0.740262 4.026132 -9.158370
v 0.799981 4.042759 -9.198445
v 0.859699 3.906914 -9.207831
v 0.836888 3.880010 -9.142988
v 0.763073 3.880010 -9.142988
v 0.740262 3.906914 -9.207831
v 0.799981 3.923540 -9.247909
v 0.820390 3.796576 -9.346330
v 0.812594 3.736854 -9.202382
v 0.787367 3.736854 -9.202382
v 0.779571 3.796576 -9.346330
v 0.799981 3.833486 -9.435291
v 0.820390 2.960852 -9.693066
v 0.812594 2.901129 -9.549116
v 0.787367 2.901129 -9.549116
v 0.779571 2.960852 -9.693066
v 0.799981 2.997762 -9.782026
v 0.833052 4.141429 -8.982296
v 0.820420 4.114984 -9.010792
v 0.779541 4.114984 -9.010792
v 0.766909 4.141429 -8.982296
v 0.799981 4.157773 -8.964683
v 0.833052 4.293911 -9.123809
v 0.820420 4.267466 -9.152307
v 0.779541 4.267466 -9.152307
v 0.766909 4.293911 -9.123809
v 0.799981 4.310255 -9.106197
v 0.781793 4.220298 -8.852753
v 0.758982 4.289807 -8.862616
v 0.685167 4.289807 -8.862616
v 0.662356 4.220298 -8.852753
v 0.722075 4.177341 -8.846661
v 0.781793 4.238429 -8.724962
v 0.758982 4.307937 -8.734823
v 0.685167 4.307937 -8.734823
v 0.662356 4.238429 -8.724962
v 0.722075 4.195471 -8.718867
v 0.742484 4.175409 -8.559481
v 0.734688 4.329708 -8.581371
v 0.709461 4.329708 -8.581371
v 0.701665 4.175409 -8.559481
v 0.722075 4.080049 -8.545951
v 0.742484 4.302502 -7.663652
v 0.734688 4.456800 -7.685544
v 0.709461 4.456800 -7.685544
v 0.701665 4.302502 -7.663652
v 0.722075 4.207142 -7.650124
v 0.761028 4.164298 -9.295510
v 0.746149 4.209636 -9.301943
v 0.698000 4.209636 -9.301943
v 0.683122 4.164298 -9.295510
v 0.722075 4.136278 -9.291535
v 0.761028 4.231364 -8.822792
v 0.746149 4.276702 -8.829224
v 0.698000 4.276702 -8.829224
v 0.683122 4.231364 -8.822792
v 0.722075 4.203344 -8.818816
v 0.781793 4.200425 -9.269103
v 0.758982 4.130916 -9.259243
v 0.685167 4.130916 -9.259243
v 0.662356 4.200425 -9.269103
v 0.722075 4.243382 -9.275198
v 0.781793 4.182294 -9.396894
v 0.758982 4.112786 -9.387034
v 0.685167 4.112786 -9.387034
v 0.662356 4.182294 -9.396894
v 0.722075 4.225252 -9.402990
v 0.742484 4.245315 -9.562376
v 0.734688 4.091015 -9.540485
v 0.709461 4.091015 -9.540485
v 0.701665 4.245315 -9.562376
v 0.722075 4.340674 -9.575906
v 0.742484 4.118222 -10.458204
v 0.734688 3.963922 -10.436314
v 0.709461 3.963922 -10.436314
v 0.701665 4.118222 -10.458204
v 0.722075 4.213582 -10.471733
v 0.755146 4.107587 -9.080219
v 0.742513 4.118649 -9.117490
v 0.701635 4.118649 -9.117490
v 0.689003 4.107587 -9.080219
v 0.722075 4.100750 -9.057186
v 0.755146 4.307021 -9.021036
v 0.742513 4.318083 -9.058307
v 0.701635 4.318083 -9.058307
v 0.689003 4.307021 -9.021036
v 0.722075 4.300184 -8.998002
v 0.580829 4.125480 -9.000226
v 0.580829 4.148170 -8.975158
v 0.580829 4.115115 -8.968042
v 0.817970 4.125480 -9.000226
v 0.817970 4.148170 -8.975158
v 0.800840 4.115115 -8.968042
v 0.580829 4.299696 -9.117297
v 0.580829 4.276739 -9.142119
v 0.580829 4.309715 -9.149589
v 0.817970 4.299696 -9.117297
v 0.817970 4.276739 -9.142119
v 0.800840 4.309715 -9.149589
vn -0.0000 -0.3826 -0.9239
vn -0.0000 0.9726 0.2326
vn -0.0000 -0.7592 0.6509
vn -0.0000 0.3814 0.9244
vn -0.0000 -0.9726 -0.2326
vn -0.0000 0.7584 -0.6518
vn 1.0000 -0.0000 -0.0000
vn -1.0000 -0.0000 -0.0000
vn 0.5878 0.3100 -0.7473
vn 0.6363 0.3669 -0.6786
vn 0.9738 -0.0899 0.2088
vn 0.9511 -0.1184 0.2854
vn -0.5878 0.3100 -0.7473
vn -0.6363 0.3669 -0.6786
vn -0.9511 -0.1184 0.2854
vn -0.9738 -0.0899 0.2088
vn -0.0000 -0.7291 0.6844
vn -0.0000 -0.3832 0.9237
vn 0.9926 0.0460 0.1122
vn 0.6497 0.3611 -0.6690
vn -0.6497 0.3611 -0.6690
vn -0.9926 0.0460 0.1122
vn -0.0000 -0.4834 0.8754
vn 0.6892 0.2777 -0.6692
vn 0.9968 -0.0304 0.0733
vn -0.6892 0.2777 -0.6692
vn -0.9968 -0.0304 0.0733
vn -0.0000 0.9237 0.3832
vn -0.0000 -0.9237 -0.3832
vn 0.6363 -0.3669 0.6786
vn 0.9738 0.0899 -0.2088
vn 0.9511 0.1184 -0.2854
vn 0.5878 -0.3100 0.7473
vn -0.6363 -0.3669 0.6786
vn -0.5878 -0.3100 0.7473
vn -0.9738 0.0899 -0.2088
vn -0.9511 0.1184 -0.2854
vn -0.0000 0.7291 -0.6844
vn -0.0000 0.3832 -0.9237
vn 0.9926 -0.0460 -0.1122
vn 0.6497 -0.3611 0.6690
vn -0.6497 -0.3611 0.6690
vn -0.9926 -0.0460 -0.1122
vn -0.0000 0.4834 -0.8754
vn 0.9968 0.0304 -0.0733
vn 0.6892 -0.2777 0.6692
vn -0.6892 -0.2777 0.6692
vn -0.9968 0.0304 -0.0733
vn 0.9511 0.2102 0.2265
vn 0.5878 -0.5503 -0.5930
vn -0.5878 -0.5503 -0.5930
vn -0.9511 0.2102 0.2265
vn -0.0000 0.6803 0.7330
vn -0.0000 -0.7330 0.6802
vn -0.0000 0.7330 -0.6802
vn 0.9738 -0.2255 0.0290
vn 0.9511 -0.3060 0.0434
vn 0.5878 0.8010 -0.1136
vn 0.6363 0.7709 -0.0297
vn -0.5878 0.8010 -0.1136
vn -0.6363 0.7709 -0.0297
vn -0.9511 -0.3060 0.0434
vn -0.9738 -0.2255 0.0290
vn -0.0000 -0.9901 0.1405
vn -0.0000 -0.9603 -0.2790
vn 0.9926 -0.0731 0.0967
vn 0.6497 0.7596 -0.0298
vn -0.6497 0.7596 -0.0298
vn -0.9926 -0.0731 0.0967
vn -0.0000 -0.9996 0.0296
vn 0.9968 -0.0785 0.0111
vn 0.6892 0.7174 -0.1018
vn -0.6892 0.7174 -0.1018
vn -0.9968 -0.0785 0.0111
vn -0.0000 0.1405 0.9901
vn -0.0000 -0.1405 -0.9901
vn 0.9738 0.2255 -0.0290
vn 0.9511 0.3060 -0.0434
vn 0.5878 -0.8010 0.1136
vn 0.6363 -0.7709 0.0297
vn -0.5878 -0.8010 0.1136
vn -0.6363 -0.7709 0.0297
vn -0.9511 0.3060 -0.0434
vn -0.9738 0.2255 -0.0290
vn -0.0000 0.9901 -0.1405
vn -0.0000 0.9603 0.2790
vn 0.9926 0.0731 -0.0967
vn 0.6497 -0.7596 0.0298
vn -0.6497 -0.7596 0.0298
vn -0.9926 0.0731 -0.0967
vn -0.0000 0.9996 -0.0296
vn 0.6892 -0.7174 0.1018
vn 0.9968 0.0785 -0.0111
vn -0.6892 -0.7174 0.1018
vn -0.9968 0.0785 -0.0111
vn 0.9511 -0.0879 0.2962
vn 0.9511 -0.0879 0.2963
vn 0.5878 0.2302 -0.7756
vn -0.5878 0.2302 -0.7756
vn -0.9511 -0.0879 0.2963
vn -0.9511 -0.0879 0.2962
vn -0.0000 -0.2845 0.9587
vn -0.0000 -0.9587 -0.2845
vn -0.0000 0.9587 0.2845
vn -0.0000 0.7414 -0.6711
vn -0.0000 0.2104 0.9776
vn -0.0000 -0.9519 -0.3065
vn 0.8631 -0.3744 0.3388
vn -0.0000 -0.7341 0.6790
vn -0.0000 -0.2209 -0.9753
vn -0.0000 0.9551 0.2963
vn 0.8632 0.3707 -0.3429
vt 0.842564 0.930555
vt 0.842564 0.935652
vt 0.835332 0.935652
vt 0.835332 0.930555
vt 0.815778 0.930555
vt 0.815778 0.935652
vt 0.808545 0.930555
vt 0.808545 0.935652
vt 0.801301 0.930555
vt 0.801301 0.935652
vt 0.835332 0.918829
vt 0.815778 0.918829
vt 0.815778 0.913732
vt 0.835332 0.913732
vt 0.849809 0.935652
vt 0.849809 0.930555
vt 0.820023 0.924699
vt 0.831087 0.924699
vt 0.831087 0.941508
vt 0.820023 0.941508
vt 0.835332 0.947380
vt 0.815778 0.947380
vt 0.989745 0.969409
vt 0.981313 0.969411
vt 0.981313 0.964584
vt 0.989745 0.964584
vt 0.989745 0.974234
vt 0.981313 0.974233
vt 0.989745 0.979058
vt 0.981313 0.979058
vt 0.981313 0.983884
vt 0.989745 0.983884
vt 0.989745 0.959760
vt 0.981313 0.959760
vt 0.971180 0.960798
vt 0.971180 0.970988
vt 0.971180 0.972655
vt 0.971180 0.982848
vt 0.971180 0.989282
vt 0.971180 0.954363
vt 0.912040 0.970988
vt 0.912040 0.960798
vt 0.912040 0.972655
vt 0.912040 0.982848
vt 0.912040 0.989282
vt 0.912040 0.954363
vt 0.910393 0.971080
vt 0.909376 0.960931
vt 0.910393 0.954578
vt 0.994335 0.963093
vt 0.994335 0.970899
vt 0.997171 0.966997
vt 0.867452 0.986856
vt 0.867453 0.955648
vt 0.870600 0.955649
vt 0.870597 0.986856
vt 0.864304 0.986856
vt 0.864304 0.955648
vt 0.880039 0.986856
vt 0.876892 0.986856
vt 0.876893 0.955649
vt 0.880041 0.955649
vt 0.873746 0.955648
vt 0.873745 0.986856
vt 0.981313 0.969410
vt 0.989747 0.964584
vt 0.989747 0.969410
vt 0.981313 0.974235
vt 0.989747 0.974235
vt 0.989747 0.979058
vt 0.989747 0.983884
vt 0.989747 0.959760
vt 0.912041 0.960798
vt 0.912041 0.970988
vt 0.912041 0.972655
vt 0.912041 0.982848
vt 0.912041 0.989282
vt 0.912041 0.954363
vt 0.910394 0.971079
vt 0.910394 0.954578
vt 0.994335 0.970901
vt 0.994335 0.963095
vt 0.808786 0.963484
vt 0.806115 0.963483
vt 0.806115 0.949885
vt 0.808786 0.949886
vt 0.803443 0.963483
vt 0.803443 0.949886
vt 0.800771 0.963484
vt 0.800770 0.949886
vt 0.798099 0.963483
vt 0.798099 0.949885
vt 0.811458 0.963483
vt 0.811458 0.949886
vt 0.806940 0.966024
vt 0.804779 0.967595
vt 0.802617 0.966025
vt 0.801597 0.947346
vt 0.797273 0.947345
vt 0.799435 0.945775
vt 0.981313 0.964584
vt 0.989747 0.964584
vt 0.989747 0.974234
vt 0.989747 0.979059
vt 0.981313 0.979059
vt 0.989747 0.959759
vt 0.981313 0.959759
vt 0.912042 0.960798
vt 0.912042 0.970988
vt 0.912042 0.972655
vt 0.912042 0.982848
vt 0.912042 0.989282
vt 0.912042 0.954363
vt 0.910395 0.971080
vt 0.909376 0.960933
vt 0.910395 0.954578
vt 0.994337 0.963093
vt 0.989747 0.969409
vt 0.994336 0.970899
vt 0.884849 0.986855
vt 0.884849 0.955648
vt 0.887997 0.955648
vt 0.887996 0.986855
vt 0.891143 0.955648
vt 0.891143 0.986854
vt 0.894291 0.955647
vt 0.894290 0.986855
vt 0.897437 0.955647
vt 0.897437 0.986855
vt 0.900584 0.986856
vt 0.900584 0.955649
vt 0.981313 0.964585
vt 0.989747 0.964585
vt 0.981313 0.969411
vt 0.981313 0.974234
vt 0.981313 0.983885
vt 0.910394 0.971082
vt 0.910394 0.954579
vt 0.997171 0.966998
vt 0.802917 0.992253
vt 0.802917 0.978656
vt 0.805589 0.978656
vt 0.805589 0.992253
vt 0.808262 0.978655
vt 0.808261 0.992253
vt 0.810933 0.978656
vt 0.810933 0.992253
vt 0.813606 0.978655
vt 0.813603 0.992253
vt 0.816277 0.978655
vt 0.816276 0.992253
vt 0.806926 0.974544
vt 0.804763 0.976114
vt 0.809086 0.976115
vt 0.814939 0.996364
vt 0.817101 0.994794
vt 0.812778 0.994794
vt 0.982826 0.930984
vt 0.985037 0.930984
vt 0.985037 0.946483
vt 0.982826 0.946483
vt 0.980616 0.930984
vt 0.980616 0.945364
vt 0.978406 0.946483
vt 0.978406 0.930984
vt 0.981053 0.947803
vt 0.973455 0.946483
vt 0.971245 0.946483
vt 0.971245 0.930984
vt 0.973455 0.930984
vt 0.966825 0.930984
vt 0.969035 0.930984
vt 0.969035 0.945364
vt 0.966825 0.946483
vt 0.969472 0.947803
s 1
usemtl lambert2
f 7/1/1 1/2/1 2/3/1 8/4/1
f 9/5/2 8/4/2 2/3/2 3/6/2
f 10/7/3 9/5/3 3/6/3 4/8/3
f 11/9/4 10/7/4 4/8/4 5/10/4
f 12/11/5 11/12/5 5/13/5 6/14/5
f 6/15/6 1/2/6 7/1/6 12/16/6
f 8/4/7 9/5/7 10/17/7 7/18/7
f 7/18/7 10/17/7 11/12/7 12/11/7
f 3/6/8 2/3/8 1/19/8 4/20/8
f 4/20/8 1/19/8 6/21/8 5/22/8
f 14/23/9 19/24/10 18/25/11 13/26/12
f 15/27/13 20/28/14 19/24/10 14/23/9
f 15/27/13 16/29/15 21/30/16 20/28/14
f 22/31/17 21/30/16 16/29/15 17/32/18
f 17/33/18 13/26/12 18/25/11 22/34/17
f 23/35/19 18/25/11 19/24/10 24/36/20
f 19/24/10 20/28/14 25/37/21 24/36/20
f 25/37/21 20/28/14 21/30/16 26/38/22
f 21/30/16 27/39/23 26/38/22
f 22/34/17 18/25/11 27/40/23
f 23/35/19 24/36/20 29/41/24 28/42/25
f 25/37/21 30/43/26 29/41/24 24/36/20
f 25/37/21 26/38/22 31/44/27 30/43/26
f 26/38/22 27/39/23 32/45/18 31/44/27
f 27/40/23 23/35/19 28/42/25 32/46/18
f 28/42/28 29/41/28 30/47/28 31/48/28
f 32/49/28 28/42/28 31/48/28
f 14/23/29 13/26/29 17/50/29
f 15/51/29 14/23/29 17/50/29 16/52/29
f 27/40/23 18/25/11 23/35/19
f 21/30/16 22/31/17 27/39/23
f 34/53/9 39/54/9 38/55/12 33/56/12
f 39/54/9 34/53/9 35/57/13 40/58/13
f 35/59/13 36/60/15 41/61/15 40/62/13
f 42/63/18 41/61/15 36/60/15 37/64/18
f 37/64/18 33/56/12 38/55/12 42/63/18
f 49/65/30 48/25/31 43/66/32 44/67/33
f 50/68/34 49/65/30 44/67/33 45/69/35
f 51/30/36 50/68/34 45/69/35 46/70/37
f 52/31/38 51/30/36 46/70/37 47/71/39
f 48/25/31 52/34/38 47/72/39 43/66/32
f 53/35/40 48/25/31 49/65/30 54/36/41
f 54/36/41 49/65/30 50/68/34 55/37/42
f 56/38/43 55/37/42 50/68/34 51/30/36
f 51/30/36 52/31/38 57/39/44
f 57/40/44 48/25/31 53/35/40
f 58/73/45 53/35/40 54/36/41 59/74/46
f 54/36/41 55/37/42 60/75/47 59/74/46
f 56/38/43 61/76/48 60/75/47 55/37/42
f 56/38/43 57/39/44 62/77/39 61/76/48
f 57/40/44 53/35/40 58/73/45 62/78/39
f 58/73/29 59/74/29 60/79/29 61/48/29
f 62/80/29 58/73/29 61/48/29
f 44/67/28 46/52/28 45/81/28
f 46/52/28 44/67/28 43/66/28 47/82/28
f 52/34/38 48/25/31 57/40/44
f 51/30/36 57/39/44 56/38/43
f 63/83/49 64/84/50 69/85/50 68/86/49
f 65/87/51 70/88/51 69/85/50 64/84/50
f 70/88/51 65/87/51 66/89/52 71/90/52
f 71/90/52 66/89/52 67/91/53 72/92/53
f 67/93/53 63/83/49 68/86/49 72/94/53
f 63/95/54 67/96/54 66/97/54
f 65/87/54 64/84/54 63/95/54 66/97/54
f 70/98/55 71/90/55 68/99/55 69/100/55
f 72/92/55 68/99/55 71/90/55
f 78/101/56 73/102/57 74/67/58 79/24/59
f 79/24/59 74/67/58 75/103/60 80/28/61
f 76/104/62 81/105/63 80/28/61 75/103/60
f 81/105/63 76/104/62 77/71/64 82/31/65
f 77/106/64 73/102/57 78/101/56 82/107/65
f 83/35/66 78/101/56 79/24/59 84/36/67
f 84/36/67 79/24/59 80/28/61 85/37/68
f 86/38/69 85/37/68 80/28/61 81/105/63
f 81/105/63 87/39/70 86/38/69
f 82/107/65 78/101/56 87/40/70
f 88/108/71 83/35/66 84/36/67 89/109/72
f 90/110/73 89/109/72 84/36/67 85/37/68
f 85/37/68 86/38/69 91/111/74 90/110/73
f 91/111/74 86/38/69 87/39/70 92/112/64
f 88/108/71 92/113/64 87/40/70 83/35/66
f 90/114/75 91/115/75 88/108/75 89/109/75
f 92/116/75 88/108/75 91/115/75
f 74/66/76 73/117/76 77/52/76
f 75/118/76 74/66/76 77/52/76 76/119/76
f 87/40/70 78/101/56 83/35/66
f 81/105/63 82/31/65 87/39/70
f 98/120/57 93/121/57 94/122/58 99/123/58
f 99/123/58 94/122/58 95/124/60 100/125/60
f 100/125/60 95/124/60 96/126/62 101/127/62
f 101/127/62 96/126/62 97/128/64 102/129/64
f 98/130/57 102/129/64 97/128/64 93/131/57
f 108/132/77 103/133/78 104/67/79 109/134/80
f 109/134/80 104/67/79 105/69/81 110/135/82
f 106/104/83 111/105/84 110/135/82 105/69/81
f 111/105/84 106/104/83 107/71/85 112/136/86
f 107/72/85 103/133/78 108/132/77 112/34/86
f 113/35/87 108/132/77 109/134/80 114/36/88
f 114/36/88 109/134/80 110/135/82 115/37/89
f 116/38/90 115/37/89 110/135/82 111/105/84
f 111/105/84 112/136/86 117/39/91
f 117/40/91 108/132/77 113/35/87
f 114/36/88 119/74/92 118/73/93 113/35/87
f 119/74/92 114/36/88 115/37/89 120/75/94
f 116/38/90 121/76/95 120/75/94 115/37/89
f 121/76/95 116/38/90 117/39/91 122/77/85
f 118/73/93 122/78/85 117/40/91 113/35/87
f 120/137/76 121/115/76 118/73/76 119/74/76
f 122/138/76 118/73/76 121/115/76
f 104/67/75 106/139/75 105/81/75
f 107/82/75 106/139/75 104/67/75 103/133/75
f 112/34/86 108/132/77 117/40/91
f 111/105/84 117/39/91 116/38/90
f 128/140/96 123/141/97 124/142/98 129/143/98
f 129/143/98 124/142/98 125/144/99 130/145/99
f 126/146/100 131/147/101 130/145/99 125/144/99
f 131/147/101 126/146/100 127/148/102 132/149/102
f 127/148/102 123/150/97 128/151/96 132/149/102
f 127/152/103 125/144/103 124/142/103 123/153/103
f 126/154/103 125/144/103 127/152/103
f 130/155/104 132/149/104 128/151/104 129/156/104
f 131/157/104 132/149/104 130/155/104
f 133/158/105 134/159/105 137/160/105 136/161/105
f 135/162/106 138/163/106 137/164/106 134/165/106
f 135/162/107 133/158/107 136/161/107 138/163/107
f 137/166/108 138/163/108 136/161/108
f 143/167/109 142/168/109 139/169/109 140/170/109
f 140/171/110 141/172/110 144/173/110 143/174/110
f 139/169/111 142/168/111 144/173/111 141/172/111
f 143/175/112 144/173/112 142/168/112
