# Blender 3.6.2
# www.blender.org
mtllib rotor.mtl
o main_rotor
v -0.000000 3.919792 0.303465
v 0.566321 3.966476 0.747710
v 0.747710 3.966476 0.566321
v 0.303465 3.919792 -0.000000
v 0.000000 3.919792 -0.303465
v -0.566321 3.966476 -0.747711
v -0.747710 3.966476 -0.566322
v -0.303465 3.919792 -0.000000
v -0.000000 4.152526 0.303465
v 0.566321 4.105843 0.747710
v 0.747710 4.105843 0.566321
v 0.303465 4.152526 -0.000000
v 0.000000 4.152526 -0.303465
v -0.566321 4.105843 -0.747711
v -0.747710 4.105843 -0.566322
v -0.303465 4.152526 -0.000000
v 0.747711 3.966476 -0.566321
v 0.566321 3.966476 -0.747711
v -0.747710 3.966476 0.566321
v -0.566322 3.966476 0.747710
v 0.747711 4.105843 -0.566321
v 0.566322 4.105843 -0.747711
v -0.747710 4.105843 0.566321
v -0.566321 4.105843 0.747710
v 0.252323 3.627924 -0.094590
v 0.212235 3.660806 -0.375304
v 0.143299 3.660806 -0.406647
v -0.094590 3.627924 -0.252323
v -0.252323 3.627924 0.094590
v -0.212235 3.660806 0.375303
v -0.143299 3.660806 0.406647
v 0.094590 3.627924 0.252323
v 0.252323 3.738261 -0.094590
v 0.212235 3.705379 -0.375304
v 0.143299 3.705379 -0.406647
v -0.094590 3.738261 -0.252323
v -0.252323 3.738261 0.094590
v -0.212235 3.705379 0.375303
v -0.143299 3.705379 0.406647
v 0.094590 3.738261 0.252323
v 0.375303 3.660806 0.212235
v 0.406647 3.660806 0.143299
v -0.375303 3.660806 -0.212235
v -0.406647 3.660806 -0.143299
v 0.375303 3.705379 0.212235
v 0.406647 3.705379 0.143299
v -0.375303 3.705379 -0.212235
v -0.406647 3.705379 -0.143299
v 0.125753 3.705379 -0.330073
v 0.166066 3.705379 -0.311744
v 0.161783 3.705379 -0.355821
v 0.125753 4.016245 -0.330073
v 0.166066 4.016245 -0.311744
v 0.161783 4.016245 -0.355821
v -0.125753 3.705379 0.330073
v -0.166066 3.705379 0.311743
v -0.161783 3.705379 0.355820
v -0.125753 4.016245 0.330073
v -0.166066 4.016245 0.311743
v -0.161783 4.016245 0.355820
v 0.330073 3.705379 0.125752
v 0.311743 3.705379 0.166065
v 0.355820 3.705379 0.161783
v 0.330073 4.016245 0.125752
v 0.311743 4.016245 0.166065
v 0.355820 4.016245 0.161783
v -0.330073 3.705379 -0.125753
v -0.311743 3.705379 -0.166066
v -0.355820 3.705379 -0.161783
v -0.330073 4.016245 -0.125753
v -0.311743 4.016245 -0.166066
v -0.355820 4.016245 -0.161783
v -1.114702 4.035757 -1.702111
v -4.493683 4.035757 -5.081092
v -0.746007 4.052015 -0.568025
v -4.984785 4.052015 -4.806802
v -0.746007 4.019499 -0.568025
v -4.984785 4.019499 -4.806802
v -0.716299 4.064922 -0.597733
v -4.946661 4.064921 -4.828095
v -4.946661 4.006591 -4.828095
v -0.761920 4.064922 -1.052791
v -4.683952 4.064921 -4.974823
v -0.761920 4.006592 -1.052791
v -4.683952 4.006591 -4.974823
v -4.885859 4.006591 -5.449715
v -4.721110 4.035757 -5.592381
v -4.885859 4.064921 -5.449715
v -5.113330 4.006591 -5.252733
v -5.113330 4.064921 -5.252734
v -5.146339 4.019499 -5.224147
v -5.146339 4.052015 -5.224147
v -0.716299 4.006592 -0.597733
v -0.583324 4.006592 -0.730708
v -0.583324 4.064922 -0.730708
v -1.702111 4.035757 1.114701
v -5.081092 4.035758 4.493682
v -0.568024 4.052015 0.746007
v -4.806802 4.052016 4.984785
v -0.568024 4.019499 0.746007
v -4.806802 4.019500 4.984785
v -0.597733 4.064922 0.716299
v -4.828095 4.064922 4.946661
v -4.828095 4.006592 4.946661
v -1.052790 4.064922 0.761920
v -4.974822 4.064922 4.683952
v -1.052790 4.006592 0.761920
v -4.974822 4.006592 4.683952
v -5.449714 4.006592 4.885858
v -5.592380 4.035758 4.721109
v -5.449714 4.064922 4.885858
v -5.252732 4.006592 5.113329
v -5.252733 4.064922 5.113329
v -5.224147 4.019500 5.146339
v -5.224147 4.052016 5.146339
v -0.597733 4.006592 0.716299
v -0.730708 4.006592 0.583323
v -0.730708 4.064922 0.583323
v 1.702111 4.035757 -1.114702
v 5.081092 4.035757 -4.493683
v 0.568024 4.052015 -0.746008
v 4.806802 4.052015 -4.984786
v 0.568024 4.019499 -0.746008
v 4.806802 4.019499 -4.984786
v 0.597733 4.064922 -0.716299
v 4.828095 4.064921 -4.946662
v 4.828095 4.006591 -4.946662
v 1.052790 4.064922 -0.761920
v 4.974822 4.064921 -4.683953
v 1.052790 4.006592 -0.761920
v 4.974822 4.006591 -4.683953
v 5.449714 4.006591 -4.885859
v 5.592380 4.035757 -4.721110
v 5.449714 4.064921 -4.885859
v 5.252732 4.006591 -5.113330
v 5.252733 4.064921 -5.113330
v 5.224147 4.019499 -5.146340
v 5.224147 4.052015 -5.146340
v 0.597733 4.006592 -0.716299
v 0.730708 4.006592 -0.583324
v 0.730708 4.064922 -0.583324
v 1.114702 4.035757 1.702111
v 4.493683 4.035758 5.081091
v 0.746007 4.052015 0.568024
v 4.984785 4.052016 4.806801
v 0.746007 4.019499 0.568024
v 4.984785 4.019500 4.806801
v 0.716299 4.064922 0.597732
v 4.946661 4.064922 4.828094
v 4.946661 4.006592 4.828094
v 0.761920 4.064922 1.052790
v 4.683952 4.064922 4.974822
v 0.761920 4.006592 1.052790
v 4.683952 4.006592 4.974822
v 4.885859 4.006592 5.449714
v 4.721110 4.035758 5.592380
v 4.885859 4.064922 5.449714
v 5.113330 4.006592 5.252732
v 5.113330 4.064922 5.252733
v 5.146339 4.019500 5.224146
v 5.146339 4.052016 5.224146
v 0.716299 4.006592 0.597732
v 0.583324 4.006592 0.730708
v 0.583324 4.064922 0.730708
vn -0.6172 -0.0000 0.7868
vn 0.7071 -0.0000 0.7071
vn 0.7868 -0.0000 -0.6172
vn 0.6172 -0.0000 -0.7868
vn -0.7071 -0.0000 -0.7071
vn -0.7868 -0.0000 0.6172
vn -0.0461 0.9979 -0.0461
vn 0.0461 0.9979 0.0461
vn -0.0461 -0.9979 -0.0461
vn 0.0461 -0.9979 0.0461
vn 0.7868 -0.0000 0.6172
vn 0.7071 -0.0000 -0.7071
vn -0.6172 -0.0000 -0.7868
vn -0.7868 -0.0000 -0.6172
vn -0.7071 -0.0000 0.7071
vn 0.6172 -0.0000 0.7868
vn -0.0461 0.9979 0.0461
vn 0.0461 0.9979 -0.0461
vn -0.0461 -0.9979 0.0461
vn 0.0461 -0.9979 -0.0461
vn -0.0000 -1.0000 -0.0000
vn -0.0000 1.0000 -0.0000
vn 0.9900 -0.0000 -0.1414
vn 0.4139 -0.0000 -0.9103
vn -0.5442 -0.0000 -0.8389
vn -0.9900 -0.0000 0.1414
vn -0.4139 -0.0000 0.9103
vn 0.5442 -0.0000 0.8389
vn -0.0564 0.9907 0.1241
vn 0.0564 0.9907 -0.1241
vn -0.0564 -0.9907 0.1241
vn 0.0564 -0.9907 -0.1241
vn 0.1414 -0.0000 0.9900
vn 0.9103 -0.0000 0.4139
vn 0.8389 -0.0000 -0.5442
vn -0.1414 -0.0000 -0.9900
vn -0.9103 -0.0000 -0.4139
vn -0.8389 -0.0000 0.5442
vn -0.1241 0.9907 -0.0564
vn 0.1241 0.9907 0.0564
vn -0.1241 -0.9907 -0.0564
vn 0.1241 -0.9907 0.0564
vn -0.9953 -0.0000 0.0967
vn 0.5814 -0.0000 0.8136
vn -0.5814 -0.0000 -0.8136
vn 0.9953 -0.0000 -0.0967
vn -0.8136 -0.0000 0.5814
vn -0.0967 -0.0000 -0.9953
vn 0.0967 -0.0000 0.9953
vn 0.8136 -0.0000 -0.5814
vn 0.0974 0.9905 -0.0974
vn 0.0488 0.9976 -0.0488
vn 0.0325 0.9989 -0.0325
vn -0.5687 0.5943 0.5687
vn -0.5687 -0.5943 0.5687
vn -0.1050 -0.9889 0.1050
vn -0.0699 -0.9951 0.0699
vn -0.6546 -0.0000 -0.7560
vn -0.1050 0.9889 0.1050
vn -0.0699 0.9951 0.0699
vn 0.0325 -0.9989 -0.0325
vn 0.0488 -0.9976 -0.0488
vn -0.6546 -0.0000 -0.7559
vn 0.0974 -0.9905 -0.0974
vn 0.8766 -0.0000 -0.4812
vn 0.8787 -0.0000 -0.4774
vn 0.0625 -0.9977 -0.0272
vn 0.1247 -0.9907 -0.0543
vn 0.1247 0.9907 -0.0543
vn 0.0625 0.9977 -0.0272
vn -0.7495 -0.5948 0.2906
vn -0.1378 -0.9890 0.0537
vn -0.7495 0.5948 0.2906
vn -0.7495 0.5948 0.2907
vn -0.1378 0.9890 0.0537
vn 0.8745 -0.0000 -0.4849
vn -0.0974 0.9905 -0.0974
vn -0.0488 0.9976 -0.0488
vn -0.0325 0.9989 -0.0325
vn 0.5687 0.5943 0.5687
vn 0.5687 -0.5943 0.5687
vn 0.1050 -0.9889 0.1050
vn 0.0699 -0.9951 0.0699
vn -0.7560 -0.0000 0.6546
vn 0.1050 0.9889 0.1050
vn 0.0699 0.9951 0.0699
vn -0.0325 -0.9989 -0.0325
vn -0.0488 -0.9976 -0.0488
vn -0.7559 -0.0000 0.6546
vn -0.0974 -0.9905 -0.0974
vn -0.4812 -0.0000 -0.8766
vn -0.4774 -0.0000 -0.8787
vn -0.0272 -0.9977 -0.0625
vn -0.0543 -0.9907 -0.1247
vn -0.0543 0.9907 -0.1247
vn -0.0272 0.9977 -0.0625
vn 0.2906 -0.5948 0.7495
vn 0.0537 -0.9890 0.1378
vn 0.2906 0.5948 0.7495
vn 0.2907 0.5948 0.7495
vn 0.0537 0.9890 0.1378
vn -0.4849 -0.0000 -0.8745
vn 0.0974 0.9905 0.0974
vn 0.0488 0.9976 0.0488
vn 0.0325 0.9989 0.0325
vn -0.5687 0.5943 -0.5687
vn -0.5687 -0.5943 -0.5687
vn -0.1050 -0.9889 -0.1050
vn -0.0699 -0.9951 -0.0699
vn 0.7560 -0.0000 -0.6546
vn -0.1050 0.9889 -0.1050
vn -0.0699 0.9951 -0.0699
vn 0.0325 -0.9989 0.0325
vn 0.0488 -0.9976 0.0488
vn 0.7559 -0.0000 -0.6546
vn 0.0974 -0.9905 0.0974
vn 0.4812 -0.0000 0.8766
vn 0.4774 -0.0000 0.8787
vn 0.0272 -0.9977 0.0625
vn 0.0543 -0.9907 0.1247
vn 0.0543 0.9907 0.1247
vn 0.0272 0.9977 0.0625
vn -0.2906 -0.5948 -0.7495
vn -0.0537 -0.9890 -0.1378
vn -0.2906 0.5948 -0.7495
vn -0.2907 0.5948 -0.7495
vn -0.0537 0.9890 -0.1378
vn 0.4849 -0.0000 0.8745
vn -0.0974 0.9905 0.0974
vn -0.0488 0.9976 0.0488
vn -0.0325 0.9989 0.0325
vn 0.5687 0.5943 -0.5687
vn 0.5687 -0.5943 -0.5687
vn 0.1050 -0.9889 -0.1050
vn 0.0699 -0.9951 -0.0699
vn 0.6546 -0.0000 0.7560
vn 0.1050 0.9889 -0.1050
vn 0.0699 0.9951 -0.0699
vn -0.0325 -0.9989 0.0325
vn -0.0488 -0.9976 0.0488
vn 0.6546 -0.0000 0.7559
vn -0.0974 -0.9905 0.0974
vn -0.8766 -0.0000 0.4812
vn -0.8787 -0.0000 0.4774
vn -0.0625 -0.9977 0.0272
vn -0.1247 -0.9907 0.0543
vn -0.1247 0.9907 0.0543
vn -0.0625 0.9977 0.0272
vn 0.7495 -0.5948 -0.2906
vn 0.1378 -0.9890 -0.0537
vn 0.7495 0.5948 -0.2906
vn 0.7495 0.5948 -0.2907
vn 0.1378 0.9890 -0.0537
vn -0.8745 -0.0000 0.4849
vt 0.017021 0.073465
vt 0.007913 0.073465
vt 0.004860 0.026419
vt 0.020073 0.026419
vt 0.034164 0.025866
vt 0.025054 0.025866
vt 0.025055 0.009099
vt 0.034164 0.009099
vt 0.037216 0.072912
vt 0.022004 0.072912
vt 0.004862 0.026420
vt 0.020072 0.026420
vt 0.017021 0.073465
vt 0.007913 0.073465
vt 0.034164 0.025866
vt 0.025055 0.025866
vt 0.025055 0.009099
vt 0.037215 0.072912
vt 0.022004 0.072912
vt 0.116153 0.041501
vt 0.116153 0.058268
vt 0.069346 0.063910
vt 0.069346 0.035858
vt 0.069346 0.063910
vt 0.069346 0.035858
vt 0.116153 0.041500
vt 0.116152 0.058267
vt 0.080969 0.003457
vt 0.080969 0.031509
vt 0.080970 0.003457
vt 0.080970 0.031509
vt 0.017022 0.073464
vt 0.007913 0.073464
vt 0.004862 0.026419
vt 0.020074 0.026419
vt 0.025055 0.009098
vt 0.034165 0.009098
vt 0.034165 0.025866
vt 0.025055 0.025866
vt 0.022004 0.072911
vt 0.037216 0.072911
vt 0.004862 0.026420
vt 0.017022 0.073465
vt 0.034165 0.009099
vt 0.034165 0.025866
vt 0.037215 0.072913
vt 0.022004 0.072913
vt 0.069346 0.035861
vt 0.116151 0.041503
vt 0.116151 0.058269
vt 0.069346 0.063910
vt 0.069346 0.035861
vt 0.116151 0.041502
vt 0.116151 0.058268
vt 0.080970 0.003457
vt 0.080970 0.031509
vt 0.080970 0.031509
vt 0.080970 0.003457
vt 0.109020 0.003457
vt 0.109020 0.031509
vt 0.041297 0.063910
vt 0.041297 0.035858
vt 0.126988 0.086326
vt 0.108453 0.088475
vt 0.108453 0.081263
vt 0.126988 0.083412
vt 0.131938 0.083412
vt 0.131938 0.086326
vt 0.089920 0.086326
vt 0.089920 0.083412
vt 0.108453 0.081263
vt 0.108453 0.088475
vt 0.126987 0.086326
vt 0.108455 0.088475
vt 0.108455 0.081263
vt 0.126987 0.083412
vt 0.116468 0.104748
vt 0.132232 0.094770
vt 0.132232 0.119678
vt 0.116468 0.109699
vt 0.157140 0.119678
vt 0.157140 0.094770
vt 0.172906 0.104748
vt 0.172906 0.109698
vt 0.114823 0.136466
vt 0.114823 0.111558
vt 0.130589 0.121536
vt 0.130589 0.126487
vt 0.074151 0.126487
vt 0.074151 0.121536
vt 0.089915 0.111558
vt 0.089915 0.136466
vt 0.126986 0.083412
vt 0.126986 0.086326
vt 0.131937 0.086326
vt 0.131937 0.083412
vt 0.089920 0.086326
vt 0.126988 0.086326
vt 0.147162 0.135443
vt 0.142212 0.135443
vt 0.147162 0.079004
vt 0.142213 0.079004
vt 0.104845 0.152231
vt 0.099895 0.152231
vt 0.099895 0.095792
vt 0.104845 0.095792
vt 0.096444 0.162142
vt 0.099340 0.162142
vt 0.099340 0.182460
vt 0.096444 0.182460
vt 0.102233 0.162142
vt 0.102233 0.182460
vt 0.105128 0.162142
vt 0.105128 0.182460
vt 0.093902 0.162142
vt 0.093902 0.182460
vt 0.091006 0.182460
vt 0.091006 0.162142
vt 0.088111 0.182460
vt 0.085218 0.182460
vt 0.085218 0.162142
vt 0.088111 0.162142
vt 0.116409 0.182460
vt 0.113515 0.182460
vt 0.113515 0.162142
vt 0.116409 0.162142
vt 0.107725 0.162142
vt 0.110620 0.162142
vt 0.110620 0.182460
vt 0.107725 0.182460
vt 0.125537 0.182460
vt 0.125537 0.162142
vt 0.128430 0.162142
vt 0.128430 0.182460
vt 0.122641 0.162142
vt 0.122641 0.182460
vt 0.119748 0.182460
vt 0.119748 0.162142
vt 0.554257 0.016375
vt 0.558164 0.030205
vt 0.195630 0.030205
vt 0.241944 0.016368
vt 0.564302 0.052000
vt 0.564302 0.054126
vt 0.172489 0.054126
vt 0.172489 0.052000
vt 0.563524 0.056998
vt 0.172489 0.057000
vt 0.173714 0.018786
vt 0.187960 0.016880
vt 0.187960 0.020692
vt 0.563524 0.049127
vt 0.172489 0.049127
vt 0.195630 0.075922
vt 0.558164 0.075922
vt 0.207627 0.020692
vt 0.207627 0.016880
vt 0.210481 0.017724
vt 0.210481 0.019850
vt 0.241944 0.089759
vt 0.554281 0.089759
vt 0.194578 0.026539
vt 0.241534 0.015066
vt 0.589445 0.088538
vt 0.588373 0.102870
vt 0.554234 0.089746
vt 0.588373 0.003256
vt 0.589445 0.017588
vt 0.593554 0.054126
vt 0.593341 0.056865
vt 0.593554 0.052000
vt 0.593341 0.049262
vt 0.590854 0.068921
vt 0.590854 0.037205
vt 0.172489 0.069291
vt 0.172491 0.036836
vt 0.171440 0.033172
s 1
usemtl lambert2
f 2/1/1 10/2/1 9/3/1 1/4/1
f 3/5/2 11/6/2 10/7/2 2/8/2
f 11/6/3 3/5/3 4/9/3 12/10/3
f 13/11/4 5/12/4 6/13/4 14/14/4
f 6/8/5 7/15/5 15/16/5 14/17/5
f 15/16/6 7/15/6 8/18/6 16/19/6
f 14/20/7 15/21/7 16/22/7 13/23/7
f 12/24/8 9/25/8 10/26/8 11/27/8
f 5/28/9 8/29/9 7/15/9 6/8/9
f 3/5/10 2/8/10 1/30/10 4/31/10
f 17/32/11 21/33/11 12/34/11 4/35/11
f 21/36/12 17/37/12 18/38/12 22/39/12
f 13/40/13 22/39/13 18/38/13 5/41/13
f 16/42/14 8/12/14 19/43/14 23/14/14
f 24/39/15 23/17/15 19/44/15 20/45/15
f 20/45/16 1/46/16 9/47/16 24/39/16
f 16/48/17 23/49/17 24/50/17 9/51/17
f 13/24/18 12/52/18 21/53/18 22/54/18
f 19/44/19 8/55/19 1/56/19 20/45/19
f 5/57/20 18/38/20 17/37/20 4/58/20
f 8/29/21 5/28/21 4/59/21 1/60/21
f 9/25/22 12/24/22 13/61/22 16/62/22
f 34/63/23 33/64/23 25/65/23 26/66/23
f 34/63/24 26/66/24 27/67/24 35/68/24
f 35/69/25 27/70/25 28/71/25 36/72/25
f 38/73/26 37/74/26 29/75/26 30/76/26
f 38/73/27 30/76/27 31/67/27 39/68/27
f 31/70/28 32/71/28 40/72/28 39/69/28
f 39/77/29 40/78/29 37/79/29 38/80/29
f 36/81/30 33/82/30 34/83/30 35/84/30
f 33/82/22 36/81/22 37/79/22 40/78/22
f 29/85/31 32/86/31 31/87/31 30/88/31
f 27/89/32 26/90/32 25/91/32 28/92/32
f 29/85/21 28/92/21 25/91/21 32/86/21
f 40/72/33 32/71/33 41/93/33 45/94/33
f 46/95/34 45/94/34 41/93/34 42/96/34
f 42/70/35 25/65/35 33/64/35 46/97/35
f 47/98/36 36/72/36 28/71/36 43/66/36
f 47/98/37 43/66/37 44/96/37 48/95/37
f 37/74/38 48/97/38 44/70/38 29/75/38
f 47/99/39 48/100/39 37/79/39 36/81/39
f 46/101/40 33/82/40 40/78/40 45/102/40
f 44/103/41 43/104/41 28/92/41 29/85/41
f 32/86/42 25/91/42 42/105/42 41/106/42
f 49/107/43 50/108/44 53/109/44 52/110/43
f 53/109/44 50/108/44 51/111/24 54/112/24
f 51/111/24 49/113/43 52/114/43 54/112/24
f 56/115/45 59/116/45 58/117/46 55/118/46
f 60/119/27 59/120/45 56/121/45 57/122/27
f 55/118/46 58/117/46 60/119/27 57/122/27
f 65/123/47 64/124/48 61/125/48 62/126/47
f 62/127/47 63/128/34 66/129/34 65/130/47
f 61/125/48 64/124/48 66/129/34 63/128/34
f 70/131/49 67/132/49 68/133/50 71/134/50
f 69/135/37 72/136/37 71/137/50 68/138/50
f 70/131/49 72/136/37 69/135/37 67/132/49
f 74/139/51 83/140/52 82/141/53 73/142/51
f 76/143/54 78/144/55 77/145/55 75/146/54
f 77/145/55 78/144/55 81/147/56 93/148/57
f 87/149/58 86/150/58 88/151/58
f 80/152/59 76/143/54 75/146/54 79/153/60
f 84/154/61 93/148/57 81/147/56 85/155/62
f 90/156/63 89/157/63 91/158/63 92/159/63
f 79/153/60 82/141/53 83/140/52 80/152/59
f 86/150/58 89/157/63 90/156/63 88/151/58
f 73/160/64 84/154/61 85/155/62 74/161/64
f 82/141/65 84/162/65 73/163/66
f 85/155/67 86/164/67 87/165/68 74/166/68
f 87/167/69 88/168/70 83/140/70 74/139/69
f 91/169/71 89/170/72 81/147/72 78/144/71
f 91/169/71 78/144/71 76/143/73 92/171/74
f 90/172/75 92/171/74 76/143/73 80/152/75
f 89/173/72 86/164/67 85/155/67 81/147/72
f 88/168/70 90/174/75 80/152/75 83/140/70
f 93/148/57 84/154/61 94/175/21
f 95/176/76 94/177/76 84/162/65 82/141/65
f 79/153/60 95/176/22 82/141/53
f 97/139/77 106/140/78 105/141/79 96/142/77
f 99/143/80 101/144/81 100/145/81 98/146/80
f 100/145/81 101/144/81 104/147/82 116/148/83
f 110/149/84 109/150/84 111/151/84
f 103/152/85 99/143/80 98/146/80 102/153/86
f 107/154/87 116/148/83 104/147/82 108/155/88
f 113/156/84 112/157/84 114/158/89 115/159/89
f 102/153/86 105/141/79 106/140/78 103/152/85
f 109/150/84 112/157/84 113/156/84 111/151/84
f 96/160/90 107/154/87 108/155/88 97/161/90
f 105/141/91 107/162/91 96/163/92
f 108/155/93 109/164/93 110/165/94 97/166/94
f 110/167/95 111/168/96 106/140/96 97/139/95
f 114/169/97 112/170/98 104/147/98 101/144/97
f 114/169/97 101/144/97 99/143/99 115/171/100
f 113/172/101 115/171/100 99/143/99 103/152/101
f 112/173/98 109/164/93 108/155/93 104/147/98
f 111/168/96 113/174/101 103/152/101 106/140/96
f 116/148/83 107/154/87 117/175/21
f 118/176/102 117/177/102 107/162/91 105/141/91
f 102/153/86 118/176/22 105/141/79
f 120/139/103 129/140/104 128/141/105 119/142/103
f 122/143/106 124/144/107 123/145/107 121/146/106
f 123/145/107 124/144/107 127/147/108 139/148/109
f 133/149/110 132/150/110 134/151/110
f 126/152/111 122/143/106 121/146/106 125/153/112
f 130/154/113 139/148/109 127/147/108 131/155/114
f 136/156/110 135/157/110 137/158/115 138/159/115
f 125/153/112 128/141/105 129/140/104 126/152/111
f 132/150/110 135/157/110 136/156/110 134/151/110
f 119/160/116 130/154/113 131/155/114 120/161/116
f 128/141/117 130/162/117 119/163/118
f 131/155/119 132/164/119 133/165/120 120/166/120
f 133/167/121 134/168/122 129/140/122 120/139/121
f 137/169/123 135/170/124 127/147/124 124/144/123
f 137/169/123 124/144/123 122/143/125 138/171/126
f 136/172/127 138/171/126 122/143/125 126/152/127
f 135/173/124 132/164/119 131/155/119 127/147/124
f 134/168/122 136/174/127 126/152/127 129/140/122
f 139/148/109 130/154/113 140/175/21
f 141/176/128 140/177/128 130/162/117 128/141/117
f 125/153/112 141/176/22 128/141/105
f 143/139/129 152/140/130 151/141/131 142/142/129
f 145/143/132 147/144/133 146/145/133 144/146/132
f 146/145/133 147/144/133 150/147/134 162/148/135
f 156/149/136 155/150/136 157/151/136
f 149/152/137 145/143/132 144/146/132 148/153/138
f 153/154/139 162/148/135 150/147/134 154/155/140
f 159/156/141 158/157/141 160/158/141 161/159/141
f 148/153/138 151/141/131 152/140/130 149/152/137
f 155/150/136 158/157/141 159/156/141 157/151/136
f 142/160/142 153/154/139 154/155/140 143/161/142
f 151/141/143 153/162/143 142/163/144
f 154/155/145 155/164/145 156/165/146 143/166/146
f 156/167/147 157/168/148 152/140/148 143/139/147
f 160/169/149 158/170/150 150/147/150 147/144/149
f 160/169/149 147/144/149 145/143/151 161/171/152
f 159/172/153 161/171/152 145/143/151 149/152/153
f 158/173/150 155/164/145 154/155/145 150/147/150
f 157/168/148 159/174/153 149/152/153 152/140/148
f 162/148/135 153/154/139 163/175/21
f 164/176/154 163/177/154 153/162/143 151/141/143
f 148/153/138 164/176/22 151/141/131
